<?xml version="1.0" encoding="iso-8859-1"?>
<!-- Generator: Adobe Illustrator 23.0.1, SVG Export Plug-In . SVG Version: 6.00 Build 0)  -->
<svg version="1.1" id="Layer_1" xmlns="http://www.w3.org/2000/svg" xmlns:xlink="http://www.w3.org/1999/xlink" x="0px" y="0px"
	 viewBox="0 0 512 512" style="enable-background:new 0 0 512 512;" xml:space="preserve">
<g id="XMLID_3246_">
	<g id="XMLID_3247_">
		<path id="XMLID_13489_" style="fill:#010101;" d="M377.895,368.5c-5.175,0-9.379-4.188-9.379-9.379
			c0-5.191,4.188-9.379,9.379-9.379c46.529,0,84.379-37.85,84.379-84.379s-37.85-84.379-84.379-84.379
			c-4.666,0-10.096-3.28-10.748-7.914c-8.487-59.618-60.303-104.586-120.51-104.586c-67.197,0-121.879,54.682-121.879,121.879
			c0,5.255,0.446,10.844,1.417,17.564c0.382,2.691-0.414,5.414-2.197,7.468c-2.086,2.42-6.099,3.455-9.204,3.073
			c-35.573,0.016-65.016,29.459-65.016,65.653s29.443,65.621,65.621,65.621c5.175,0,9.379,4.188,9.379,9.379
			c0,5.191-4.188,9.379-9.379,9.379C68.85,368.5,31,330.65,31,284.121c0-43.503,33.089-79.411,75.414-83.901
			c-0.271-3.439-0.414-6.688-0.414-9.857c0-77.548,63.089-140.621,140.621-140.621c66.831,0,124.713,48.01,137.739,112.93
			C438.882,166.51,481,211.127,481,265.379C481.016,322.226,434.758,368.5,377.895,368.5z"/>
	</g>
	<g id="XMLID_3248_">
		<g id="XMLID_3249_">
			<g id="XMLID_3250_">
				<g id="XMLID_3251_">
					<path id="XMLID_13488_" style="fill:#010101;" d="M209.137,434.137c-36.178,0-65.621-29.443-65.621-65.621
						s29.443-65.621,65.621-65.621h37.5c5.175,0,9.379,4.188,9.379,9.379c0,5.191-4.188,9.379-9.379,9.379h-37.5
						c-25.844,0-46.879,21.019-46.879,46.879c0,25.86,21.035,46.879,46.879,46.879c5.175,0,9.379,4.188,9.379,9.379
						C218.516,429.981,214.328,434.137,209.137,434.137z"/>
				</g>
				<g id="XMLID_3252_">
					<path id="XMLID_13487_" style="fill:#010101;" d="M284.137,434.137h-37.5c-5.175,0-9.379-4.188-9.379-9.379
						c0-5.191,4.188-9.379,9.379-9.379h37.5c25.844,0,46.879-21.019,46.879-46.879c0-25.86-21.035-46.879-46.879-46.879
						c-5.175,0-9.379-4.188-9.379-9.379c0-5.191,4.188-9.379,9.379-9.379c36.178,0,65.621,29.443,65.621,65.621
						S320.331,434.137,284.137,434.137z"/>
				</g>
				<g id="XMLID_3253_">
					<path id="XMLID_13486_" style="fill:#010101;" d="M218.516,349.758c-2.404,0-4.793-0.908-6.624-2.755
						c-3.662-3.662-3.662-9.602,0-13.264l21.497-21.497l-21.497-21.497c-3.662-3.662-3.662-9.602,0-13.264s9.602-3.662,13.264,0
						l28.121,28.121c3.662,3.662,3.662,9.602,0,13.264l-28.121,28.121C223.309,348.834,220.92,349.758,218.516,349.758z"/>
				</g>
				<g id="XMLID_3254_">
					<path id="XMLID_13485_" style="fill:#010101;" d="M274.774,462.258c-2.404,0-4.793-0.908-6.624-2.755l-28.121-28.121
						c-3.662-3.662-3.662-9.602,0-13.264l28.121-28.121c3.662-3.662,9.602-3.662,13.264,0s3.662,9.602,0,13.264l-21.497,21.497
						l21.497,21.497c3.662,3.662,3.662,9.602,0,13.264C279.567,461.334,277.162,462.258,274.774,462.258z"/>
				</g>
			</g>
		</g>
	</g>
</g>
</svg>
